<svg width="30" height="30" viewBox="0 0 30 30" fill="none" xmlns="http://www.w3.org/2000/svg">
<path d="M15 0C6.71624 0 0 6.71624 0 15C0 23.2847 6.7153 30 15 30C23.2847 30 30 23.2847 30 15C30 6.71624 23.2847 0 15 0ZM15 28.154C7.7625 28.154 1.87503 22.2375 1.87503 15C1.87503 7.7625 7.7625 1.87503 15 1.87503C22.2375 1.87503 28.125 7.7625 28.125 15C28.125 22.2375 22.2375 28.154 15 28.154Z" fill="black"/>
<path d="M18.3815 7.78315C18.0149 7.41377 17.4215 7.41377 17.0559 7.78315L10.5871 14.3447C10.2309 14.7047 10.2299 15.3235 10.5871 15.6844L17.0549 22.2459C17.4215 22.6153 18.0149 22.6153 18.3806 22.2459C18.7472 21.8756 18.7472 21.2766 18.3806 20.9063L12.5728 15.0141L18.3815 9.12196C18.7472 8.7525 18.7472 8.15347 18.3815 7.78315Z" fill="black"/>
</svg>
