<svg width="30" height="63" viewBox="0 0 30 63" fill="none" xmlns="http://www.w3.org/2000/svg">
<path d="M11.05 51.3C10.55 51.1 9.96667 50.8167 9.3 50.45C8.63333 50.1167 8 49.6667 7.4 49.1C6.8 48.5333 6.33333 47.85 6 47.05C5.66667 46.0833 5.43333 45.1333 5.3 44.2C5.2 43.2667 5.16667 42.1833 5.2 40.95C5.2 39.2167 5.31667 37.7167 5.55 36.45C5.81667 35.15 6.21667 33.8333 6.75 32.5C6.81667 32.4 6.93333 32.1167 7.1 31.65C7.3 31.15 7.51667 30.6167 7.75 30.05C8.01667 29.4833 8.21667 29.05 8.35 28.75C8.61667 28.1833 9.01667 27.4333 9.55 26.5C10.1167 25.5333 10.7167 24.6 11.35 23.7C12.3167 22.2667 13.1333 21.1 13.8 20.2C14.4667 19.2667 15.1 18.4833 15.7 17.85C16.3333 17.2167 17.0167 16.6 17.75 16C18.5167 15.4 19.4667 14.7167 20.6 13.95C21.3333 13.4167 22.2667 13.0833 23.4 12.95C24.5667 12.8167 25.7 13 26.8 13.5C27.9 13.9667 28.7167 14.8667 29.25 16.2C29.6167 16.9 29.7833 17.7833 29.75 18.85C29.7167 19.8833 29.5167 21 29.15 22.2C28.7833 23.3667 28.3167 24.4667 27.75 25.5C27.1833 26.5333 26.55 27.3667 25.85 28C25.4167 28.4 24.8333 28.4667 24.1 28.2C23.4 27.9333 22.8167 27.5833 22.35 27.15C22.05 26.5833 21.8833 26.25 21.85 26.15C21.85 26.05 21.9167 25.9833 22.05 25.95C22.25 25.7167 22.5167 25.3167 22.85 24.75C23.1833 24.1833 23.5167 23.5833 23.85 22.95C24.1833 22.2833 24.4167 21.75 24.55 21.35C24.8167 19.95 25 19.0333 25.1 18.6C25.2 18.1333 25.1 17.75 24.8 17.45C24.6667 17.3167 24.4667 17.2667 24.2 17.3C23.9667 17.3333 23.5667 17.5 23 17.8C22.2333 18.1333 21.3167 18.8167 20.25 19.85C19.2167 20.85 18.1833 22.05 17.15 23.45C15.8167 25.2167 14.7 26.7833 13.8 28.15C12.9 29.5167 12.2167 30.9167 11.75 32.35C11.6833 32.4833 11.5667 32.7333 11.4 33.1C11.2667 33.4667 11.2 33.65 11.2 33.65C11.2333 33.7833 11.1833 34.1167 11.05 34.65C10.9167 35.15 10.7667 35.5833 10.6 35.95C10.2333 37.4833 10.0167 38.9667 9.95 40.4C9.88333 41.8 9.96667 43.0333 10.2 44.1C10.4667 45.1333 10.85 45.9 11.35 46.4C11.7833 46.7 12.3333 46.8 13 46.7C13.6667 46.6 14.4333 46.3667 15.3 46C16.1667 45.6333 17.1 45.2333 18.1 44.8C18.9 44.4667 19.6333 44.1 20.3 43.7C20.9667 43.3 21.4667 42.95 21.8 42.65C22.0667 42.45 22.4 42.25 22.8 42.05C23.2333 41.8167 23.6 41.7 23.9 41.7C24.3667 41.5333 24.7167 41.6667 24.95 42.1C25.1833 42.5333 25.3 43.0833 25.3 43.75C25.3 44.2167 24.9667 44.7833 24.3 45.45C23.6333 46.1167 22.9 46.6833 22.1 47.15C21.8333 47.4167 21.4667 47.6667 21 47.9C20.5667 48.1 20.1167 48.2833 19.65 48.45C18.95 48.9833 18.0833 49.5 17.05 50C16.0167 50.5 14.9667 50.8833 13.9 51.15C12.8667 51.4167 11.9167 51.4667 11.05 51.3Z" fill="black"/>
<circle cx="5" cy="17" r="3.5" fill="white" stroke="black" stroke-width="3"/>
</svg>
