<svg width="30" height="30" viewBox="0 0 30 30" fill="none" xmlns="http://www.w3.org/2000/svg">
<g clip-path="url(#clip0_10_197)">
<path d="M29.8319 5.70653C30.0778 5.22704 30.0364 4.68345 29.821 4.23221C29.8817 3.71876 29.7473 3.19743 29.2613 2.79756C28.8088 2.42537 28.3565 2.05296 27.9043 1.68069C27.1091 1.02641 25.864 0.819901 25.0905 1.68069C21.5775 5.58998 17.9038 9.32947 14.0955 12.9328C11.2641 10.2879 8.39836 7.67884 5.55312 5.06641C4.55453 4.14926 3.10912 4.43706 2.48085 5.52965C1.56572 5.98385 0.823936 6.57599 0.210551 7.58664C-0.0815097 8.06816 -0.058749 8.67598 0.210551 9.15923C2.04738 12.4525 5.59777 15.3481 8.51693 18.0127C8.12631 18.3624 7.73859 18.7154 7.34009 19.0576C3.40717 22.435 0.754353 24.578 5.6761 28.0409C5.7425 28.0877 5.81021 28.0773 5.87762 28.1046C5.97192 28.1481 6.06238 28.1788 6.16694 28.196C6.19945 28.1972 6.2298 28.2027 6.26181 28.2002C6.36311 28.2084 6.46225 28.2342 6.56493 28.214C9.21103 27.6952 11.6718 25.6216 13.9044 23.3382C16.0794 25.482 18.3953 27.53 20.9419 28.7452C21.5482 29.0346 22.271 28.8659 22.7378 28.4612C23.5205 28.5203 24.2341 28.0339 24.5923 27.335C24.6453 27.3022 24.6795 27.2835 24.7369 27.2475C25.8748 26.5367 25.9788 25.121 25.1368 24.1451C23.2355 21.9419 21.2144 19.8475 19.1541 17.7902C22.8638 14.1654 27.4959 10.256 29.8319 5.70653Z" fill="black"/>
</g>
<defs>
<clipPath id="clip0_10_197">
<rect width="30" height="30" fill="white"/>
</clipPath>
</defs>
</svg>
