<svg width="20" height="20" viewBox="0 0 20 20" fill="none" xmlns="http://www.w3.org/2000/svg">
<path d="M10 0C4.47717 0 0 4.47717 0 10C0 15.5228 4.47717 20 10 20C15.5228 20 20 15.5228 20 10C20 4.47717 15.5228 0 10 0ZM13.3815 11.8357C13.8084 12.2626 13.8084 12.9546 13.3815 13.3815C13.1681 13.5949 12.8883 13.7017 12.6086 13.7017C12.3288 13.7017 12.0491 13.5949 11.8357 13.3815L10 11.5458L8.16436 13.3815C7.95094 13.5949 7.6712 13.7017 7.39146 13.7017C7.11172 13.7017 6.83198 13.5949 6.61856 13.3815C6.19168 12.9547 6.19168 12.2626 6.61856 11.8357L8.45425 10L6.61856 8.16431C6.19168 7.73743 6.19168 7.04536 6.61856 6.61847C7.04545 6.19159 7.73752 6.19159 8.1644 6.61847L10 8.45416L11.8357 6.61847C12.2626 6.19159 12.9546 6.19159 13.3815 6.61847C13.8084 7.04532 13.8084 7.73743 13.3815 8.16431L11.5458 10L13.3815 11.8357Z" fill="#FF1F43"/>
</svg>
