<svg width="37" height="63" viewBox="0 0 37 63" fill="none" xmlns="http://www.w3.org/2000/svg">
<path d="M30 32.95C29.8 33.0833 29.3833 33.25 28.75 33.45C28.15 33.6167 27.1167 33.7833 25.65 33.95C25.2167 33.9833 24.6 34.0167 23.8 34.05C23 34.0833 22.1333 34.1167 21.2 34.15C20.3 34.1833 19.4667 34.2 18.7 34.2C17.9667 34.1667 17.45 34.1167 17.15 34.05C17.15 34.05 17.0667 34.1333 16.9 34.3C16.7667 34.4667 16.7 34.6833 16.7 34.95C16.4667 35.35 16.1833 35.95 15.85 36.75C15.5167 37.5167 15.15 38.3667 14.75 39.3C14.3833 40.2333 14.0333 41.1667 13.7 42.1C13.3667 43 13.0833 43.8 12.85 44.5C12.65 45.1667 12.55 45.6333 12.55 45.9C12.25 46.7 12.0667 47.3833 12 47.95C11.9333 48.5167 11.8167 48.85 11.65 48.95C11.55 49.45 11.2333 49.7 10.7 49.7C10.2 49.7 9.81667 49.55 9.55 49.25C8.81667 48.8833 8.31667 48.4167 8.05 47.85C7.78333 47.25 7.76667 46.5833 8 45.85C8.1 45.4167 8.26667 44.7833 8.5 43.95C8.76667 43.0833 9.05 42.1333 9.35 41.1C9.68333 40.0667 10.0167 39.0667 10.35 38.1C10.7167 37.1 11.0667 36.2833 11.4 35.65C11.7667 35.0167 12 34.45 12.1 33.95C12.2 33.4167 12.3333 32.9333 12.5 32.5C12.4667 32.1333 12.4667 31.9 12.5 31.8C12.5333 31.6667 12.6667 31.45 12.9 31.15C13.0667 31.0167 13.2667 30.7833 13.5 30.45C13.7667 30.0833 14.0667 29.5333 14.4 28.8C14.5 28.4667 14.65 28.0167 14.85 27.45C15.0833 26.85 15.3 26.25 15.5 25.65C15.7 25.0167 15.8833 24.4833 16.05 24.05C16.2167 23.6167 16.3 23.3833 16.3 23.35C16.3667 23.2167 16.4667 22.9667 16.6 22.6C16.7333 22.2 16.8333 21.8833 16.9 21.65C17.0333 21.1833 17.1333 20.8 17.2 20.5C17.3 20.2 17.2833 20.05 17.15 20.05C16.8833 20.1167 16.35 20.1667 15.55 20.2C15.15 20.2667 14.85 20.3167 14.65 20.35C14.4833 20.35 14.3333 20.3667 14.2 20.4C13.8667 20.4333 13.5667 20.4 13.3 20.3C13.0333 20.2 12.9 20 12.9 19.7C12.9667 19.1667 13.15 18.6167 13.45 18.05C13.7833 17.4833 14.2 17.1833 14.7 17.15C14.9333 17.0833 15.1833 17.0333 15.45 17C15.75 16.9333 16.15 16.8333 16.65 16.7C17.2833 16.5667 17.8333 16.5333 18.3 16.6C18.8 16.6333 19.15 16.6833 19.35 16.75C19.5167 16.65 19.65 16.55 19.75 16.45C19.8833 16.3167 19.9667 16.1833 20 16.05C20.1667 15.45 20.4667 15 20.9 14.7C21.3333 14.3667 21.7833 14.2 22.25 14.2C22.75 14.1667 23.15 14.3 23.45 14.6C23.75 14.8667 23.8333 15.3167 23.7 15.95C23.7333 16.05 23.7667 16.1333 23.8 16.2C23.8667 16.2667 24.1167 16.2667 24.55 16.2C25.0167 16.1 25.8167 15.9333 26.95 15.7C27.55 15.6333 28.3 15.5667 29.2 15.5C30.1333 15.4333 30.8667 15.4833 31.4 15.65C31.9667 15.55 32.4667 15.5167 32.9 15.55C33.3667 15.55 33.6833 15.4833 33.85 15.35C34.55 15.4833 35.05 15.5833 35.35 15.65C35.6833 15.6833 35.95 15.7833 36.15 15.95C36.2833 16.0833 36.3333 16.2167 36.3 16.35C36.2667 16.45 36.25 16.5 36.25 16.5C36.1167 16.4333 36.1 16.4333 36.2 16.5C36.3 16.5333 36.4333 16.6167 36.6 16.75C36.8333 16.85 36.95 17.0667 36.95 17.4C36.9833 17.7 36.9667 18.0167 36.9 18.35C36.8667 18.65 36.8333 18.85 36.8 18.95C36.7667 19.25 36.6 19.4333 36.3 19.5C36 19.5333 35.25 19.5333 34.05 19.5C32.6167 19.3 31.2833 19.2333 30.05 19.3C28.85 19.3333 27.3333 19.4833 25.5 19.75C24.7667 19.7833 24.1333 19.8833 23.6 20.05C23.1 20.1833 22.85 20.25 22.85 20.25C22.7167 20.25 22.4833 20.4833 22.15 20.95C21.8167 21.3833 21.5 22.0333 21.2 22.9C21.0667 23.1333 20.8333 23.6167 20.5 24.35C20.2 25.0833 19.8833 25.8833 19.55 26.75C19.2167 27.5833 18.9167 28.3333 18.65 29C18.3833 29.6333 18.2167 29.9833 18.15 30.05C18.6167 30.1833 19.3333 30.25 20.3 30.25C21.3 30.25 22.4 30.2167 23.6 30.15C24.8 30.05 25.9333 29.95 27 29.85C27.5 29.75 28.0167 29.6667 28.55 29.6C29.0833 29.5333 29.45 29.5167 29.65 29.55C30.05 29.5833 30.35 29.85 30.55 30.35C30.75 30.8167 30.8167 31.3167 30.75 31.85C30.6833 32.35 30.4333 32.7167 30 32.95Z" fill="black"/>
<circle cx="5" cy="17" r="3.5" fill="white" stroke="black" stroke-width="3"/>
</svg>
