<svg width="20" height="20" viewBox="0 0 20 20" fill="none" xmlns="http://www.w3.org/2000/svg">
<path d="M0 10.0002C0 4.47665 4.47712 0 9.99983 0C15.5229 0 20 4.47665 20 10.0002C20 15.5226 15.5229 20 9.99983 20C4.47728 20 0 15.5225 0 10.0002Z" fill="#53C437"/>
<path d="M12.3615 13.6114C11.5998 14.8578 10.2478 15.6462 8.97182 14.5936C8.19594 13.9534 7.76788 12.9886 7.55424 11.9882C8.0881 11.9868 8.62192 11.9855 9.15578 11.9844C9.26379 11.9842 9.34038 11.9361 9.38788 11.8682C9.46494 11.7853 9.49428 11.6641 9.4133 11.5385C8.67972 10.3998 7.94581 9.26105 7.21206 8.12248C7.0889 7.93112 6.82252 7.93269 6.70033 8.12438C5.97228 9.26646 5.2439 10.4088 4.51569 11.5509C4.39523 11.7399 4.5539 11.9955 4.76991 11.995C5.29951 11.9938 5.82877 11.9925 6.35832 11.9912C6.64126 13.4586 7.30618 14.8381 8.54313 15.7488C10.3274 17.0629 12.3882 15.8384 13.3874 14.2038C13.7862 13.5507 12.7596 12.9602 12.3615 13.6114Z" fill="white"/>
<path d="M15.2483 7.94232C14.7187 7.94359 14.1893 7.94502 13.6597 7.94612C13.3766 6.47897 12.7117 5.09943 11.4748 4.18869C9.69039 2.87485 7.62985 4.0993 6.63086 5.73387C6.23203 6.38663 7.25867 6.97715 7.65653 6.32595C8.4184 5.07967 9.77011 4.29116 11.0461 5.34386C11.822 5.98395 12.2502 6.94869 12.4638 7.94912C11.93 7.95055 11.396 7.95182 10.8621 7.95304C10.7544 7.95334 10.6779 8.00122 10.6305 8.06878C10.553 8.15166 10.5234 8.27326 10.6046 8.39896C11.3383 9.5377 12.0723 10.6764 12.8061 11.815C12.9295 12.0064 13.1957 12.0048 13.3179 11.8131C14.0459 10.6709 14.7743 9.52854 15.5025 8.38629C15.623 8.1973 15.4643 7.94169 15.2483 7.94232Z" fill="white"/>
</svg>
