<svg width="30" height="30" viewBox="0 0 30 30" fill="none" xmlns="http://www.w3.org/2000/svg">
<path d="M28.0833 11.8208H26.9503C26.6661 10.7494 26.2418 9.73513 25.6978 8.79875L26.4998 7.99671C27.2483 7.2483 27.2483 6.03489 26.4998 5.28648L24.7139 3.5005C23.9655 2.75208 22.7521 2.75208 22.0036 3.5005L21.2016 4.30254C20.2652 3.75855 19.251 3.33437 18.1796 3.05003V1.91655C18.1796 0.858061 17.3215 0 16.263 0H13.7373C12.6788 0 11.8208 0.858061 11.8208 1.91655V3.05003C10.7495 3.33426 9.73514 3.75855 8.79887 4.30242L7.99672 3.50038C7.24831 2.75197 6.0349 2.75197 5.28649 3.5005L3.50062 5.28648C2.7522 6.03489 2.7522 7.2483 3.50062 7.99671L4.30255 8.79864C3.75855 9.73502 3.33427 10.7494 3.05004 11.8208H1.91655C0.858183 11.8208 0.00012207 12.6788 0.00012207 13.7373V16.2629C0.00012207 17.3214 0.858183 18.1795 1.91655 18.1795H3.05004C3.33438 19.2509 3.75867 20.2652 4.30266 21.2016L3.50062 22.0036C2.7522 22.752 2.7522 23.9654 3.50062 24.7139L5.2866 26.4998C6.03502 27.2483 7.24842 27.2483 7.99684 26.4998L8.79899 25.6977C9.73525 26.2417 10.7496 26.666 11.8209 26.9502V28.0836C11.8209 29.1421 12.679 30.0001 13.7374 30.0001H16.2631C17.3216 30.0001 18.1797 29.1421 18.1797 28.0836V26.9502C19.2511 26.6659 20.2653 26.2416 21.2017 25.6976L22.0039 26.4998C22.7523 27.2483 23.9657 27.2483 24.7141 26.4998L26.5001 24.7139C26.8597 24.3544 27.0614 23.867 27.0614 23.3587C27.0614 22.8504 26.8595 22.363 26.5001 22.0035L25.6979 21.2014C26.2419 20.2651 26.6661 19.2506 26.9504 18.1793H28.0835C29.1419 18.1793 30 17.3213 30 16.2628V13.7372C29.9999 12.6788 29.1418 11.8208 28.0833 11.8208ZM15.0001 21.8596C11.2177 21.8596 8.14044 18.7823 8.14044 15C8.14044 11.2176 11.2177 8.14032 15.0001 8.14032C18.7826 8.14032 21.8598 11.2176 21.8598 15C21.8598 18.7823 18.7826 21.8596 15.0001 21.8596Z" fill="white"/>
<path d="M15.0001 11.5703C13.109 11.5703 11.5704 13.1088 11.5704 15C11.5704 16.891 13.109 18.4296 15.0001 18.4296C16.8913 18.4296 18.4299 16.891 18.4299 15C18.4299 13.1088 16.8913 11.5703 15.0001 11.5703Z" fill="white"/>
</svg>
